<?xml version="1.0" encoding="UTF-8" standalone="no"?>
<!-- Created with Inkscape (http://www.inkscape.org/) -->

<svg
   xmlns:dc="http://purl.org/dc/elements/1.1/"
   xmlns:cc="http://creativecommons.org/ns#"
   xmlns:rdf="http://www.w3.org/1999/02/22-rdf-syntax-ns#"
   xmlns:svg="http://www.w3.org/2000/svg"
   xmlns="http://www.w3.org/2000/svg"
   xmlns:sodipodi="http://sodipodi.sourceforge.net/DTD/sodipodi-0.dtd"
   xmlns:inkscape="http://www.inkscape.org/namespaces/inkscape"
   id="svg2"
   version="1.1"
   inkscape:version="0.92.1 r"
   xml:space="preserve"
   width="224"
   height="224"
   viewBox="0 0 224 224"
   sodipodi:docname="fedberry-config.svg"
   inkscape:export-xdpi="97.523811"
   inkscape:export-ydpi="97.523811"><sodipodi:namedview
     pagecolor="#ffffff"
     bordercolor="#666666"
     borderopacity="1"
     objecttolerance="10"
     gridtolerance="10"
     guidetolerance="10"
     inkscape:pageopacity="0"
     inkscape:pageshadow="2"
     inkscape:window-width="1472"
     inkscape:window-height="939"
     id="namedview4"
     showgrid="false"
     inkscape:zoom="1.88"
     inkscape:cx="98.074468"
     inkscape:cy="62.095569"
     inkscape:window-x="348"
     inkscape:window-y="22"
     inkscape:window-maximized="0"
     inkscape:current-layer="g387"
     inkscape:showpageshadow="false" /><metadata
     id="metadata8"><rdf:RDF><cc:Work
         rdf:about=""><dc:format>image/svg+xml</dc:format><dc:type
           rdf:resource="http://purl.org/dc/dcmitype/StillImage" /><dc:title /></cc:Work></rdf:RDF></metadata><defs
     id="defs6" /><g
     id="g10"
     inkscape:groupmode="layer"
     inkscape:label="logo"
     transform="matrix(1.25,0,0,-1.25,0,208.25001)"
     style="display:inline"><g
       transform="matrix(0.1,0,0,0.1,-86.896556,-166.89655)"
       id="g3356"><g
         id="g3345"
         transform="matrix(0.25139676,0,0,0.25089522,613.20753,1105.9001)"><g
           id="g30"
           transform="translate(-16.926695,19.505013)"><g
             id="g3363"
             transform="matrix(8.8888889,0,0,8.8888889,159.23169,215.91231)"
             style="fill:#4d4d4d"><path
               inkscape:connector-curvature="0"
               id="path3358"
               d="M 574.49502,1037.2407 C 475.06088,1026.3295 375.2469,984.04212 302.08122,921.82942 239.84989,868.91416 195.32739,809.47723 164.06136,737.57478 131.549,662.80614 121.54371,609.48318 123.23185,519.97488 c 0.92832,-49.22083 2.30559,-59.99374 13.50795,-105.65812 15.04597,-61.33214 45.62451,-126.65322 82.04232,-175.25667 26.59705,-35.49662 71.40943,-81.07241 102.0591,-103.79775 86.34128,-64.018158 180.74607,-97.343982 286.68354,-101.202119 113.70721,-4.141103 225.85605,30.79417 315.52603,98.288909 110.22771,82.96853 180.21991,200.82939 199.18831,335.41591 4.3157,30.62165 4.276,111.42774 -0.069,139.65517 -5.9321,38.541 -16.6528,78.20717 -30.6503,113.4054 -46.0814,115.87689 -132.11181,209.66489 -242.97512,264.885 -57.92964,28.85429 -118.0042,46.02819 -178.36026,50.98899 -19.59253,1.6103 -82.69367,1.9671 -95.68965,0.5411 h -5e-5 z"
               style="display:inline;fill:#4d4d4d"
               transform="matrix(0.8,0,0,-0.8,0,1000)" /></g><g
             style="fill:#ffffff"
             id="g387"
             transform="matrix(0.88888889,0,0,0.88888889,122.46148,156.78976)"><g
               id="g342"
               transform="matrix(10.488277,0,0,-10.509244,2346.2423,8473.665)"
               inkscape:transform-center-x="-3.1914894"
               inkscape:transform-center-y="-2.1276595"><g
                 id="g285"><g
                   id="g283"><path
                     id="path281"
                     d="M 256,0 C 114.623,0 0,114.614 0,256 0,397.377 114.623,512 256,512 397.386,512 512,397.377 512,256 512,114.614 397.386,0 256,0 Z m 89.693,139.624 c -2.319,-3.909 -2.35,-8.264 -0.097,-10.685 l 26.302,-21.358 0.341,-0.305 c 2.837,-2.833 6.432,-4.462 9.867,-4.462 1.602,0 3.886,0.372 5.661,2.151 l 17.042,17.046 c 1.642,1.638 2.381,4.059 2.094,6.821 -0.328,3.112 -1.89,6.201 -4.395,8.711 L 380.84,164.19 c -1.478,1.385 -3.351,1.678 -4.679,1.678 -1.939,0 -4.077,-0.633 -6.007,-1.779 l -3.006,-1.788 -55.649,56.831 -22.376,-19.361 58.354,-57.146 z m -95.925,189.244 -74.595,74.595 c -15.559,15.559 -40.781,15.559 -56.34,0 l -12.514,-12.514 c -15.559,-15.559 -15.559,-40.781 0,-56.34 l 73.497,-73.497 c 5.011,-0.416 10.026,-1.067 14.979,-2.023 l 57.725,66.698 c -0.862,1.059 -1.765,2.094 -2.752,3.081 z m 149.428,59.041 c -7.808,7.804 -20.331,12.111 -31.893,12.111 -8.676,0 -16.812,-2.426 -22.013,-7.627 L 204.1,229.251 c -10.716,3.603 -23.035,5.794 -35.354,5.794 -18.919,0 -37.833,-5.161 -50.94,-18.272 C 95.975,194.951 85.865,167.338 95.328,140.009 l 43.193,36.138 43.888,-5.011 2.66,-41.538 -36.129,-43.185 c 7.711,-2.674 15.634,-3.975 23.522,-3.975 20.065,0 39.922,8.415 55.592,24.084 21.65,21.654 21.623,59.115 12.465,86.312 l 38.851,33.619 13.51,11.69 110.79,95.873 c 12.13,12.138 9.164,40.255 -4.474,53.893 z"
                     inkscape:connector-curvature="0" /></g></g><g
                 id="g287" /><g
                 id="g289" /><g
                 id="g291" /><g
                 id="g293" /><g
                 id="g295" /><g
                 id="g297" /><g
                 id="g299" /><g
                 id="g301" /><g
                 id="g303" /><g
                 id="g305" /><g
                 id="g307" /><g
                 id="g309" /><g
                 id="g311" /><g
                 id="g313" /><g
                 id="g315" /></g></g></g></g></g><path
       inkscape:connector-curvature="0"
       id="path14"
       style="opacity:0;fill:#e6e6e6;fill-opacity:1;fill-rule:evenodd;stroke:none"
       d="M -85.517241,-165.51724 H 914.48276 v 1000 H -85.517241 Z" /></g></svg>
